<mxfile host="app.diagrams.net" modified="2022-07-22T11:44:08.042Z" agent="5.0 (Macintosh; Intel Mac OS X 10_15_7) AppleWebKit/537.36 (KHTML, like Gecko) Chrome/103.0.0.0 Safari/537.36" etag="kHuOabvct8spv-MXNrat" version="20.1.4" type="github" pages="3">
  <diagram id="1A78bwVTTKHf7mczSfF6" name="第 1 页">
    <mxGraphModel dx="1177" dy="768" grid="1" gridSize="10" guides="1" tooltips="1" connect="1" arrows="1" fold="1" page="1" pageScale="1" pageWidth="827" pageHeight="1169" math="0" shadow="0">
      <root>
        <mxCell id="0" />
        <mxCell id="1" parent="0" />
        <mxCell id="8VC5cO_oyUbM0IgMDiLv-1" value="" style="rounded=0;whiteSpace=wrap;html=1;fillColor=#dae8fc;strokeColor=#6c8ebf;" vertex="1" parent="1">
          <mxGeometry x="290" y="240" width="290" height="60" as="geometry" />
        </mxCell>
        <mxCell id="8VC5cO_oyUbM0IgMDiLv-2" value="" style="rounded=0;whiteSpace=wrap;html=1;fillColor=#dae8fc;strokeColor=#6c8ebf;" vertex="1" parent="1">
          <mxGeometry x="290" y="310" width="290" height="150" as="geometry" />
        </mxCell>
        <mxCell id="8VC5cO_oyUbM0IgMDiLv-3" value="host kernel space" style="text;html=1;align=center;verticalAlign=middle;resizable=0;points=[];autosize=1;strokeColor=none;fillColor=none;" vertex="1" parent="1">
          <mxGeometry x="290" y="240" width="120" height="30" as="geometry" />
        </mxCell>
        <mxCell id="8VC5cO_oyUbM0IgMDiLv-5" value="host user space" style="text;html=1;align=center;verticalAlign=middle;resizable=0;points=[];autosize=1;strokeColor=none;fillColor=none;" vertex="1" parent="1">
          <mxGeometry x="290" y="310" width="110" height="30" as="geometry" />
        </mxCell>
        <mxCell id="8VC5cO_oyUbM0IgMDiLv-6" value="" style="rounded=0;whiteSpace=wrap;html=1;fillColor=#fff2cc;strokeColor=#d6b656;" vertex="1" parent="1">
          <mxGeometry x="440" y="320" width="120" height="130" as="geometry" />
        </mxCell>
        <mxCell id="8VC5cO_oyUbM0IgMDiLv-7" value="qemu" style="text;html=1;align=center;verticalAlign=middle;resizable=0;points=[];autosize=1;strokeColor=none;fillColor=none;" vertex="1" parent="1">
          <mxGeometry x="440" y="420" width="50" height="30" as="geometry" />
        </mxCell>
        <mxCell id="8VC5cO_oyUbM0IgMDiLv-8" value="guest kernel space" style="rounded=0;whiteSpace=wrap;html=1;fillColor=#d5e8d4;strokeColor=#82b366;" vertex="1" parent="1">
          <mxGeometry x="450" y="330" width="100" height="40" as="geometry" />
        </mxCell>
        <mxCell id="8VC5cO_oyUbM0IgMDiLv-9" value="guest user space" style="rounded=0;whiteSpace=wrap;html=1;fillColor=#d5e8d4;strokeColor=#82b366;" vertex="1" parent="1">
          <mxGeometry x="450" y="380" width="100" height="40" as="geometry" />
        </mxCell>
      </root>
    </mxGraphModel>
  </diagram>
  <diagram id="JWKCcu3V5om8WrMPh5Mr" name="第 2 页">
    <mxGraphModel dx="785" dy="512" grid="1" gridSize="10" guides="1" tooltips="1" connect="1" arrows="1" fold="1" page="1" pageScale="1" pageWidth="827" pageHeight="1169" math="0" shadow="0">
      <root>
        <mxCell id="0" />
        <mxCell id="1" parent="0" />
        <mxCell id="NT1T6oUMc5_1J3KqsbCf-1" value="" style="rounded=0;whiteSpace=wrap;html=1;fillColor=#fff2cc;strokeColor=#d6b656;" vertex="1" parent="1">
          <mxGeometry x="260" y="270" width="400" height="210" as="geometry" />
        </mxCell>
        <mxCell id="NT1T6oUMc5_1J3KqsbCf-2" value="qemu" style="text;html=1;align=center;verticalAlign=middle;resizable=0;points=[];autosize=1;strokeColor=none;fillColor=none;" vertex="1" parent="1">
          <mxGeometry x="260" y="450" width="50" height="30" as="geometry" />
        </mxCell>
        <mxCell id="NT1T6oUMc5_1J3KqsbCf-5" style="edgeStyle=orthogonalEdgeStyle;rounded=1;orthogonalLoop=1;jettySize=auto;html=1;exitX=1;exitY=0.25;exitDx=0;exitDy=0;entryX=0;entryY=0.25;entryDx=0;entryDy=0;" edge="1" parent="1" source="NT1T6oUMc5_1J3KqsbCf-3" target="NT1T6oUMc5_1J3KqsbCf-4">
          <mxGeometry relative="1" as="geometry" />
        </mxCell>
        <mxCell id="NT1T6oUMc5_1J3KqsbCf-3" value="back-end device" style="rounded=0;whiteSpace=wrap;html=1;" vertex="1" parent="1">
          <mxGeometry x="280" y="330" width="70" height="40" as="geometry" />
        </mxCell>
        <mxCell id="NT1T6oUMc5_1J3KqsbCf-6" style="edgeStyle=orthogonalEdgeStyle;rounded=1;orthogonalLoop=1;jettySize=auto;html=1;exitX=0;exitY=0.75;exitDx=0;exitDy=0;entryX=1;entryY=0.75;entryDx=0;entryDy=0;" edge="1" parent="1" source="NT1T6oUMc5_1J3KqsbCf-4" target="NT1T6oUMc5_1J3KqsbCf-3">
          <mxGeometry relative="1" as="geometry">
            <Array as="points">
              <mxPoint x="370" y="358" />
              <mxPoint x="370" y="360" />
            </Array>
          </mxGeometry>
        </mxCell>
        <mxCell id="NT1T6oUMc5_1J3KqsbCf-4" value="virtqueue" style="rounded=0;whiteSpace=wrap;html=1;" vertex="1" parent="1">
          <mxGeometry x="390" y="335" width="70" height="30" as="geometry" />
        </mxCell>
        <mxCell id="NT1T6oUMc5_1J3KqsbCf-7" value="" style="rounded=0;whiteSpace=wrap;html=1;" vertex="1" parent="1">
          <mxGeometry x="480" y="290" width="150" height="170" as="geometry" />
        </mxCell>
        <mxCell id="NT1T6oUMc5_1J3KqsbCf-8" value="" style="rounded=0;whiteSpace=wrap;html=1;fillColor=#d5e8d4;strokeColor=#82b366;" vertex="1" parent="1">
          <mxGeometry x="495" y="305" width="120" height="60" as="geometry" />
        </mxCell>
        <mxCell id="dENXSuILsthjfeEIfKB6-1" value="guest user space" style="rounded=0;whiteSpace=wrap;html=1;fillColor=#d5e8d4;strokeColor=#82b366;" vertex="1" parent="1">
          <mxGeometry x="495" y="380" width="120" height="60" as="geometry" />
        </mxCell>
        <mxCell id="dENXSuILsthjfeEIfKB6-2" style="edgeStyle=orthogonalEdgeStyle;rounded=1;orthogonalLoop=1;jettySize=auto;html=1;exitX=1;exitY=0.25;exitDx=0;exitDy=0;entryX=0;entryY=0.25;entryDx=0;entryDy=0;" edge="1" parent="1" source="NT1T6oUMc5_1J3KqsbCf-4" target="dENXSuILsthjfeEIfKB6-5">
          <mxGeometry relative="1" as="geometry">
            <mxPoint x="495" y="340" as="targetPoint" />
            <Array as="points">
              <mxPoint x="480" y="342" />
              <mxPoint x="480" y="325" />
            </Array>
          </mxGeometry>
        </mxCell>
        <mxCell id="dENXSuILsthjfeEIfKB6-5" value="front-end driver" style="rounded=0;whiteSpace=wrap;html=1;" vertex="1" parent="1">
          <mxGeometry x="500" y="315" width="70" height="40" as="geometry" />
        </mxCell>
        <mxCell id="dENXSuILsthjfeEIfKB6-3" style="edgeStyle=orthogonalEdgeStyle;rounded=1;orthogonalLoop=1;jettySize=auto;html=1;exitX=0;exitY=0.75;exitDx=0;exitDy=0;entryX=1;entryY=0.75;entryDx=0;entryDy=0;" edge="1" parent="1" source="dENXSuILsthjfeEIfKB6-5" target="NT1T6oUMc5_1J3KqsbCf-4">
          <mxGeometry relative="1" as="geometry">
            <Array as="points">
              <mxPoint x="480" y="345" />
              <mxPoint x="480" y="358" />
            </Array>
          </mxGeometry>
        </mxCell>
        <mxCell id="dENXSuILsthjfeEIfKB6-6" value="guest &lt;br&gt;kernel &lt;br&gt;space" style="text;html=1;align=center;verticalAlign=middle;resizable=0;points=[];autosize=1;strokeColor=none;fillColor=none;" vertex="1" parent="1">
          <mxGeometry x="565" y="305" width="60" height="60" as="geometry" />
        </mxCell>
      </root>
    </mxGraphModel>
  </diagram>
  <diagram id="kqBuIqsQiQkB6n6rdUsM" name="第 3 页">
    <mxGraphModel dx="785" dy="512" grid="1" gridSize="10" guides="1" tooltips="1" connect="1" arrows="1" fold="1" page="1" pageScale="1" pageWidth="827" pageHeight="1169" math="0" shadow="0">
      <root>
        <mxCell id="0" />
        <mxCell id="1" parent="0" />
        <mxCell id="3-5vK2FGKkUAJU7zgON--1" value="" style="rounded=0;whiteSpace=wrap;html=1;fillColor=#dae8fc;strokeColor=#6c8ebf;" vertex="1" parent="1">
          <mxGeometry x="70" y="260" width="240" height="70" as="geometry" />
        </mxCell>
        <mxCell id="3-5vK2FGKkUAJU7zgON--2" value="" style="rounded=0;whiteSpace=wrap;html=1;fillColor=#dae8fc;strokeColor=#6c8ebf;" vertex="1" parent="1">
          <mxGeometry x="70" y="340" width="240" height="130" as="geometry" />
        </mxCell>
        <mxCell id="MNtsQ4y1GBZzps-Rza-r-20" style="edgeStyle=orthogonalEdgeStyle;rounded=1;orthogonalLoop=1;jettySize=auto;html=1;exitX=1;exitY=0.5;exitDx=0;exitDy=0;startArrow=classic;startFill=1;" edge="1" parent="1" source="3-5vK2FGKkUAJU7zgON--3" target="3-5vK2FGKkUAJU7zgON--4">
          <mxGeometry relative="1" as="geometry" />
        </mxCell>
        <mxCell id="3-5vK2FGKkUAJU7zgON--3" value="TAP" style="rounded=0;whiteSpace=wrap;html=1;" vertex="1" parent="1">
          <mxGeometry x="120" y="268" width="60" height="20" as="geometry" />
        </mxCell>
        <mxCell id="3-5vK2FGKkUAJU7zgON--6" value="" style="rounded=0;whiteSpace=wrap;html=1;fillColor=#fff2cc;strokeColor=#d6b656;" vertex="1" parent="1">
          <mxGeometry x="120" y="350" width="180" height="110" as="geometry" />
        </mxCell>
        <mxCell id="3-5vK2FGKkUAJU7zgON--10" style="edgeStyle=orthogonalEdgeStyle;rounded=1;orthogonalLoop=1;jettySize=auto;html=1;exitX=0.5;exitY=1;exitDx=0;exitDy=0;entryX=0;entryY=0.5;entryDx=0;entryDy=0;startArrow=classic;startFill=1;" edge="1" parent="1" source="3-5vK2FGKkUAJU7zgON--7" target="3-5vK2FGKkUAJU7zgON--9">
          <mxGeometry relative="1" as="geometry">
            <Array as="points">
              <mxPoint x="160" y="405" />
            </Array>
          </mxGeometry>
        </mxCell>
        <mxCell id="MNtsQ4y1GBZzps-Rza-r-24" style="edgeStyle=orthogonalEdgeStyle;rounded=1;orthogonalLoop=1;jettySize=auto;html=1;exitX=0.5;exitY=0;exitDx=0;exitDy=0;entryX=0.5;entryY=1;entryDx=0;entryDy=0;fontSize=10;startArrow=classic;startFill=1;" edge="1" parent="1" source="3-5vK2FGKkUAJU7zgON--7" target="3-5vK2FGKkUAJU7zgON--3">
          <mxGeometry relative="1" as="geometry" />
        </mxCell>
        <mxCell id="3-5vK2FGKkUAJU7zgON--7" value="&lt;font style=&quot;font-size: 12px;&quot;&gt;virtio-net device&lt;/font&gt;" style="rounded=0;whiteSpace=wrap;html=1;" vertex="1" parent="1">
          <mxGeometry x="130" y="360" width="60" height="30" as="geometry" />
        </mxCell>
        <mxCell id="3-5vK2FGKkUAJU7zgON--9" value="guest" style="rounded=0;whiteSpace=wrap;html=1;fillColor=#d5e8d4;strokeColor=#82b366;" vertex="1" parent="1">
          <mxGeometry x="200" y="360" width="90" height="90" as="geometry" />
        </mxCell>
        <mxCell id="MNtsQ4y1GBZzps-Rza-r-3" value="kernel" style="text;html=1;align=center;verticalAlign=middle;resizable=0;points=[];autosize=1;strokeColor=none;fillColor=none;" vertex="1" parent="1">
          <mxGeometry x="250" y="300" width="60" height="30" as="geometry" />
        </mxCell>
        <mxCell id="MNtsQ4y1GBZzps-Rza-r-4" value="user" style="text;html=1;align=center;verticalAlign=middle;resizable=0;points=[];autosize=1;strokeColor=none;fillColor=none;" vertex="1" parent="1">
          <mxGeometry x="70" y="440" width="50" height="30" as="geometry" />
        </mxCell>
        <mxCell id="3-5vK2FGKkUAJU7zgON--4" value="" style="sketch=0;pointerEvents=1;shadow=0;dashed=0;html=1;strokeColor=none;fillColor=#505050;labelPosition=center;verticalLabelPosition=bottom;verticalAlign=top;outlineConnect=0;align=center;shape=mxgraph.office.devices.nic;" vertex="1" parent="1">
          <mxGeometry x="243" y="240" width="57" height="38" as="geometry" />
        </mxCell>
        <mxCell id="MNtsQ4y1GBZzps-Rza-r-23" value="&lt;font style=&quot;font-size: 10px;&quot;&gt;shared&lt;br&gt;memory&lt;/font&gt;" style="text;html=1;align=center;verticalAlign=middle;resizable=0;points=[];autosize=1;strokeColor=none;fillColor=none;fontSize=6;" vertex="1" parent="1">
          <mxGeometry x="140" y="400" width="60" height="40" as="geometry" />
        </mxCell>
        <mxCell id="MNtsQ4y1GBZzps-Rza-r-25" value="" style="rounded=0;whiteSpace=wrap;html=1;fillColor=#dae8fc;strokeColor=#6c8ebf;" vertex="1" parent="1">
          <mxGeometry x="350" y="260" width="240" height="70" as="geometry" />
        </mxCell>
        <mxCell id="MNtsQ4y1GBZzps-Rza-r-26" value="" style="rounded=0;whiteSpace=wrap;html=1;fillColor=#dae8fc;strokeColor=#6c8ebf;" vertex="1" parent="1">
          <mxGeometry x="350" y="340" width="240" height="130" as="geometry" />
        </mxCell>
        <mxCell id="MNtsQ4y1GBZzps-Rza-r-27" style="edgeStyle=orthogonalEdgeStyle;rounded=1;orthogonalLoop=1;jettySize=auto;html=1;exitX=1;exitY=0.5;exitDx=0;exitDy=0;startArrow=classic;startFill=1;" edge="1" parent="1" source="MNtsQ4y1GBZzps-Rza-r-28" target="MNtsQ4y1GBZzps-Rza-r-36">
          <mxGeometry relative="1" as="geometry" />
        </mxCell>
        <mxCell id="MNtsQ4y1GBZzps-Rza-r-28" value="TAP" style="rounded=0;whiteSpace=wrap;html=1;" vertex="1" parent="1">
          <mxGeometry x="400" y="268" width="60" height="20" as="geometry" />
        </mxCell>
        <mxCell id="MNtsQ4y1GBZzps-Rza-r-29" value="" style="rounded=0;whiteSpace=wrap;html=1;fillColor=#fff2cc;strokeColor=#d6b656;" vertex="1" parent="1">
          <mxGeometry x="400" y="350" width="180" height="110" as="geometry" />
        </mxCell>
        <mxCell id="MNtsQ4y1GBZzps-Rza-r-30" style="edgeStyle=orthogonalEdgeStyle;rounded=1;orthogonalLoop=1;jettySize=auto;html=1;exitX=0.5;exitY=1;exitDx=0;exitDy=0;entryX=0;entryY=0.5;entryDx=0;entryDy=0;startArrow=classic;startFill=1;" edge="1" parent="1" source="MNtsQ4y1GBZzps-Rza-r-38" target="MNtsQ4y1GBZzps-Rza-r-33">
          <mxGeometry relative="1" as="geometry">
            <Array as="points">
              <mxPoint x="430" y="405" />
            </Array>
          </mxGeometry>
        </mxCell>
        <mxCell id="MNtsQ4y1GBZzps-Rza-r-32" value="&lt;font style=&quot;font-size: 12px;&quot;&gt;virtio-net device&lt;/font&gt;" style="rounded=0;whiteSpace=wrap;html=1;dashed=1;" vertex="1" parent="1">
          <mxGeometry x="410" y="360" width="60" height="30" as="geometry" />
        </mxCell>
        <mxCell id="MNtsQ4y1GBZzps-Rza-r-33" value="guest" style="rounded=0;whiteSpace=wrap;html=1;fillColor=#d5e8d4;strokeColor=#82b366;" vertex="1" parent="1">
          <mxGeometry x="480" y="360" width="90" height="90" as="geometry" />
        </mxCell>
        <mxCell id="MNtsQ4y1GBZzps-Rza-r-34" value="kernel" style="text;html=1;align=center;verticalAlign=middle;resizable=0;points=[];autosize=1;strokeColor=none;fillColor=none;" vertex="1" parent="1">
          <mxGeometry x="530" y="300" width="60" height="30" as="geometry" />
        </mxCell>
        <mxCell id="MNtsQ4y1GBZzps-Rza-r-35" value="user" style="text;html=1;align=center;verticalAlign=middle;resizable=0;points=[];autosize=1;strokeColor=none;fillColor=none;" vertex="1" parent="1">
          <mxGeometry x="350" y="440" width="50" height="30" as="geometry" />
        </mxCell>
        <mxCell id="MNtsQ4y1GBZzps-Rza-r-36" value="" style="sketch=0;pointerEvents=1;shadow=0;dashed=0;html=1;strokeColor=none;fillColor=#505050;labelPosition=center;verticalLabelPosition=bottom;verticalAlign=top;outlineConnect=0;align=center;shape=mxgraph.office.devices.nic;" vertex="1" parent="1">
          <mxGeometry x="523" y="240" width="57" height="38" as="geometry" />
        </mxCell>
        <mxCell id="MNtsQ4y1GBZzps-Rza-r-41" style="edgeStyle=orthogonalEdgeStyle;rounded=1;orthogonalLoop=1;jettySize=auto;html=1;exitX=0;exitY=0.5;exitDx=0;exitDy=0;entryX=0;entryY=0.5;entryDx=0;entryDy=0;fontSize=12;startArrow=classic;startFill=1;" edge="1" parent="1" source="MNtsQ4y1GBZzps-Rza-r-38" target="MNtsQ4y1GBZzps-Rza-r-28">
          <mxGeometry relative="1" as="geometry">
            <Array as="points">
              <mxPoint x="380" y="310" />
              <mxPoint x="380" y="278" />
            </Array>
          </mxGeometry>
        </mxCell>
        <mxCell id="MNtsQ4y1GBZzps-Rza-r-38" value="virtio-net" style="rounded=0;whiteSpace=wrap;html=1;" vertex="1" parent="1">
          <mxGeometry x="400" y="300" width="60" height="20" as="geometry" />
        </mxCell>
        <mxCell id="MNtsQ4y1GBZzps-Rza-r-40" value="&lt;font style=&quot;font-size: 10px;&quot;&gt;ioctl offload: &lt;br&gt;shared memory&lt;/font&gt;" style="text;html=1;align=center;verticalAlign=middle;resizable=0;points=[];autosize=1;strokeColor=none;fillColor=none;fontSize=6;" vertex="1" parent="1">
          <mxGeometry x="395" y="400" width="90" height="40" as="geometry" />
        </mxCell>
        <mxCell id="MNtsQ4y1GBZzps-Rza-r-42" value="" style="rounded=0;whiteSpace=wrap;html=1;fillColor=#dae8fc;strokeColor=#6c8ebf;" vertex="1" parent="1">
          <mxGeometry x="620" y="260" width="240" height="70" as="geometry" />
        </mxCell>
        <mxCell id="MNtsQ4y1GBZzps-Rza-r-43" value="" style="rounded=0;whiteSpace=wrap;html=1;fillColor=#dae8fc;strokeColor=#6c8ebf;" vertex="1" parent="1">
          <mxGeometry x="620" y="340" width="240" height="130" as="geometry" />
        </mxCell>
        <mxCell id="MNtsQ4y1GBZzps-Rza-r-46" value="" style="rounded=0;whiteSpace=wrap;html=1;fillColor=#fff2cc;strokeColor=#d6b656;" vertex="1" parent="1">
          <mxGeometry x="710" y="350" width="140" height="110" as="geometry" />
        </mxCell>
        <mxCell id="MNtsQ4y1GBZzps-Rza-r-49" value="guest" style="rounded=0;whiteSpace=wrap;html=1;fillColor=#d5e8d4;strokeColor=#82b366;" vertex="1" parent="1">
          <mxGeometry x="790" y="360" width="50" height="90" as="geometry" />
        </mxCell>
        <mxCell id="MNtsQ4y1GBZzps-Rza-r-50" value="kernel" style="text;html=1;align=center;verticalAlign=middle;resizable=0;points=[];autosize=1;strokeColor=none;fillColor=none;" vertex="1" parent="1">
          <mxGeometry x="800" y="300" width="60" height="30" as="geometry" />
        </mxCell>
        <mxCell id="MNtsQ4y1GBZzps-Rza-r-51" value="user" style="text;html=1;align=center;verticalAlign=middle;resizable=0;points=[];autosize=1;strokeColor=none;fillColor=none;" vertex="1" parent="1">
          <mxGeometry x="620" y="440" width="50" height="30" as="geometry" />
        </mxCell>
        <mxCell id="MNtsQ4y1GBZzps-Rza-r-52" value="" style="sketch=0;pointerEvents=1;shadow=0;dashed=0;html=1;strokeColor=none;fillColor=#505050;labelPosition=center;verticalLabelPosition=bottom;verticalAlign=top;outlineConnect=0;align=center;shape=mxgraph.office.devices.nic;" vertex="1" parent="1">
          <mxGeometry x="590" y="330" width="57" height="38" as="geometry" />
        </mxCell>
        <mxCell id="MNtsQ4y1GBZzps-Rza-r-64" style="edgeStyle=orthogonalEdgeStyle;rounded=1;orthogonalLoop=1;jettySize=auto;html=1;exitX=0.5;exitY=0;exitDx=0;exitDy=0;fontSize=12;startArrow=classic;startFill=1;" edge="1" parent="1" source="MNtsQ4y1GBZzps-Rza-r-56" target="MNtsQ4y1GBZzps-Rza-r-52">
          <mxGeometry relative="1" as="geometry">
            <mxPoint x="650" y="360" as="targetPoint" />
            <Array as="points">
              <mxPoint x="665" y="350" />
            </Array>
          </mxGeometry>
        </mxCell>
        <mxCell id="MNtsQ4y1GBZzps-Rza-r-56" value="" style="rounded=0;whiteSpace=wrap;html=1;fontSize=12;fillColor=#e1d5e7;strokeColor=#9673a6;" vertex="1" parent="1">
          <mxGeometry x="630" y="380" width="70" height="60" as="geometry" />
        </mxCell>
        <mxCell id="MNtsQ4y1GBZzps-Rza-r-61" value="dpdk" style="text;html=1;align=center;verticalAlign=middle;resizable=0;points=[];autosize=1;strokeColor=none;fillColor=none;fontSize=12;" vertex="1" parent="1">
          <mxGeometry x="630" y="410" width="50" height="30" as="geometry" />
        </mxCell>
        <mxCell id="MNtsQ4y1GBZzps-Rza-r-62" value="vhost-user" style="whiteSpace=wrap;html=1;fontSize=12;dashed=1;" vertex="1" parent="1">
          <mxGeometry x="635" y="390" width="60" height="20" as="geometry" />
        </mxCell>
        <mxCell id="MNtsQ4y1GBZzps-Rza-r-65" value="virtio" style="text;html=1;align=center;verticalAlign=middle;resizable=0;points=[];autosize=1;strokeColor=none;fillColor=none;fontSize=12;" vertex="1" parent="1">
          <mxGeometry x="165" y="490" width="50" height="30" as="geometry" />
        </mxCell>
        <mxCell id="MNtsQ4y1GBZzps-Rza-r-66" value="virtio-net" style="text;html=1;align=center;verticalAlign=middle;resizable=0;points=[];autosize=1;strokeColor=none;fillColor=none;fontSize=12;" vertex="1" parent="1">
          <mxGeometry x="435" y="490" width="70" height="30" as="geometry" />
        </mxCell>
        <mxCell id="MNtsQ4y1GBZzps-Rza-r-67" value="dpdk (virtio-user)" style="text;html=1;align=center;verticalAlign=middle;resizable=0;points=[];autosize=1;strokeColor=none;fillColor=none;fontSize=12;" vertex="1" parent="1">
          <mxGeometry x="685" y="490" width="110" height="30" as="geometry" />
        </mxCell>
        <mxCell id="MNtsQ4y1GBZzps-Rza-r-69" style="edgeStyle=orthogonalEdgeStyle;rounded=1;orthogonalLoop=1;jettySize=auto;html=1;exitX=0;exitY=0.5;exitDx=0;exitDy=0;entryX=1;entryY=0.5;entryDx=0;entryDy=0;fontSize=12;startArrow=none;startFill=1;" edge="1" parent="1" source="MNtsQ4y1GBZzps-Rza-r-68" target="MNtsQ4y1GBZzps-Rza-r-62">
          <mxGeometry relative="1" as="geometry" />
        </mxCell>
        <mxCell id="MNtsQ4y1GBZzps-Rza-r-68" value="&lt;font style=&quot;font-size: 12px;&quot;&gt;virtio-net device&lt;/font&gt;" style="rounded=0;whiteSpace=wrap;html=1;dashed=1;" vertex="1" parent="1">
          <mxGeometry x="714" y="385" width="60" height="30" as="geometry" />
        </mxCell>
        <mxCell id="MNtsQ4y1GBZzps-Rza-r-70" value="" style="edgeStyle=orthogonalEdgeStyle;rounded=1;orthogonalLoop=1;jettySize=auto;html=1;exitX=0;exitY=0.5;exitDx=0;exitDy=0;entryX=1;entryY=0.5;entryDx=0;entryDy=0;fontSize=12;startArrow=classic;startFill=1;endArrow=none;" edge="1" parent="1" source="MNtsQ4y1GBZzps-Rza-r-49" target="MNtsQ4y1GBZzps-Rza-r-68">
          <mxGeometry relative="1" as="geometry">
            <mxPoint x="800" y="405" as="sourcePoint" />
            <mxPoint x="695" y="400" as="targetPoint" />
          </mxGeometry>
        </mxCell>
        <mxCell id="MNtsQ4y1GBZzps-Rza-r-71" value="&lt;font style=&quot;font-size: 10px;&quot;&gt;uds offload: &lt;br&gt;shared memory&lt;/font&gt;" style="text;html=1;align=center;verticalAlign=middle;resizable=0;points=[];autosize=1;strokeColor=none;fillColor=none;fontSize=6;" vertex="1" parent="1">
          <mxGeometry x="695" y="410" width="90" height="40" as="geometry" />
        </mxCell>
      </root>
    </mxGraphModel>
  </diagram>
</mxfile>
